# xmcd
#
# Track frame offsets: 
#        150
#        16760
#        38415
#        65385
#        94952
#        123642
#        147330
#        180932
#        182282
#        195002
#        206505
#        218972
#        231977
#
# Disc length: 3243 seconds
#
# Revision: 2
# Processed by: cddbd v1.5.2PL0 Copyright (c) Steve Scherf et al.
# Submitted via: ExactAudioCopy v1.1
#
DISCID=a60ca90d
DTITLE=Assimil - Le nouveau Grec sans peine - CD1
DYEAR=1994
DGENRE=Speech
TTITLE0=Lezione 00
TTITLE1=Lezione 01
TTITLE2=Lezione 02
TTITLE3=Lezione 03
TTITLE4=Lezione 04
TTITLE5=Lezione 05
TTITLE6=Lezione 06
TTITLE7=Lezione 07
TTITLE8=Lezione 08
TTITLE9=Lezione 09
TTITLE10=Lezione 10
TTITLE11=Lezione 11
TTITLE12=Lezione 12
EXTD=YEAR: 1994
EXTT0=
EXTT1=
EXTT2=
EXTT3=
EXTT4=
EXTT5=
EXTT6=
EXTT7=
EXTT8=
EXTT9=
EXTT10=
EXTT11=
EXTT12=
PLAYORDER=
